<svg width="27" height="27" viewBox="0 0 27 27" fill="none" xmlns="http://www.w3.org/2000/svg">
<path d="M4.26485 12.132C4.22241 12.132 4.2118 12.108 4.23302 12.072L4.45581 11.748C4.47703 11.712 4.53007 11.688 4.57251 11.688H8.35993C8.40237 11.688 8.41298 11.724 8.39176 11.76L8.21141 12.072C8.19019 12.108 8.13714 12.144 8.10532 12.144L4.26485 12.132Z" fill="#00ACD7"/>
<path d="M2.66292 13.236C2.62048 13.236 2.60987 13.212 2.63109 13.176L2.85388 12.852C2.8751 12.816 2.92815 12.792 2.97058 12.792H7.8083C7.85074 12.792 7.87196 12.828 7.86135 12.864L7.77648 13.152C7.76587 13.2 7.72343 13.224 7.681 13.224L2.66292 13.236Z" fill="#00ACD7"/>
<path d="M5.2303 14.34C5.18787 14.34 5.17726 14.304 5.19848 14.268L5.347 13.968C5.36822 13.932 5.41066 13.896 5.45309 13.896H7.5749C7.61734 13.896 7.63856 13.932 7.63856 13.98L7.61734 14.268C7.61734 14.316 7.5749 14.352 7.54307 14.352L5.2303 14.34Z" fill="#00ACD7"/>
<path d="M16.2425 11.9159C15.5742 12.1079 15.118 12.2519 14.4602 12.4439C14.3011 12.4919 14.2905 12.5039 14.1526 12.3239C13.9934 12.1199 13.8767 11.9879 13.6539 11.8679C12.9856 11.4959 12.3384 11.6039 11.7337 12.0479C11.0123 12.5759 10.641 13.3559 10.6516 14.3279C10.6622 15.2879 11.2457 16.0799 12.0838 16.2119C12.8052 16.3199 13.4099 16.0319 13.8873 15.4199C13.9828 15.2879 14.0677 15.1439 14.1738 14.9759C13.7919 14.9759 13.3145 14.9759 12.1262 14.9759C11.9035 14.9759 11.8504 14.8199 11.9247 14.6159C12.0626 14.2439 12.3172 13.6199 12.4657 13.3079C12.4976 13.2359 12.5718 13.1159 12.731 13.1159C13.272 13.1159 15.2665 13.1159 16.5926 13.1159C16.5714 13.4399 16.5714 13.7639 16.529 14.0879C16.4123 14.9519 16.1259 15.7439 15.6591 16.4399C14.8952 17.5799 13.898 18.2879 12.6355 18.4799C11.5958 18.6359 10.6304 18.4079 9.78164 17.6879C8.99657 17.0159 8.551 16.1279 8.4343 15.0239C8.29638 13.7159 8.63587 12.5399 9.33606 11.5079C10.0893 10.3919 11.0866 9.68387 12.3066 9.43187C13.3038 9.22787 14.2587 9.35987 15.118 10.0199C15.6803 10.4399 16.0834 11.0159 16.3486 11.7119C16.4123 11.8199 16.3699 11.8799 16.2425 11.9159Z" fill="#00ACD7"/>
<path d="M19.7541 18.5521C18.7887 18.5281 17.9081 18.2161 17.1655 17.4961C16.5396 16.8841 16.147 16.1041 16.0197 15.1801C15.8288 13.8241 16.1577 12.6241 16.8791 11.5561C17.6535 10.4041 18.5871 9.80408 19.8496 9.55208C20.9317 9.33608 21.9502 9.45608 22.8732 10.1641C23.7113 10.8121 24.2311 11.6881 24.3691 12.8401C24.5494 14.4601 24.1357 15.7801 23.149 16.9081C22.4488 17.7121 21.5895 18.2161 20.6028 18.4441C20.3164 18.5041 20.03 18.5161 19.7541 18.5521ZM22.2791 13.7041C22.2685 13.5481 22.2685 13.4281 22.2472 13.3081C22.0563 12.1201 21.0909 11.4481 20.083 11.7121C19.0964 11.9641 18.4598 12.6721 18.2264 13.8001C18.0355 14.7361 18.4386 15.6841 19.2024 16.0681C19.7859 16.3561 20.3694 16.3201 20.9317 15.9961C21.7698 15.5041 22.226 14.7361 22.2791 13.7041Z" fill="#00ACD7"/>
</svg>
