<svg width="28" height="28" viewBox="0 0 28 28" fill="none" xmlns="http://www.w3.org/2000/svg">
<g id="Frame" clip-path="url(#clip0_1_855)">
<path id="Vector" fill-rule="evenodd" clip-rule="evenodd" d="M14.0676 0.466797C10.7157 0.467811 7.4775 1.64141 4.95114 3.7708C2.39582 5.92585 0.707175 8.88193 0.181489 12.1204C-0.354383 15.3704 0.300608 18.6992 2.03335 21.5321C3.7443 24.3371 6.43682 26.4578 9.62425 27.5111C10.332 27.6389 10.582 27.204 10.582 26.8381V24.4787C6.65721 25.3215 5.8288 22.6129 5.8288 22.6129C5.57204 21.7781 5.01928 21.0574 4.26756 20.5773C2.99887 19.7252 4.37087 19.7252 4.37087 19.7252C4.81501 19.7877 5.23983 19.9492 5.61156 20.1965C5.98425 20.4439 6.29418 20.7724 6.51914 21.1569C6.70935 21.4985 6.96714 21.7991 7.27611 22.0427C7.73713 22.4095 8.3027 22.632 8.89769 22.6807C9.49268 22.7294 10.0889 22.6019 10.6071 22.3152C10.6622 21.6143 10.9682 20.9553 11.4703 20.4579C8.34783 20.1088 5.06894 18.916 5.06894 13.6445C5.04554 12.272 5.56057 10.9418 6.51046 9.92146C6.08917 8.72291 6.13831 7.41648 6.64852 6.25066C6.64852 6.25066 7.83032 5.87546 10.5125 7.67306C12.8146 7.04846 15.2501 7.04846 17.5521 7.67306C20.2353 5.87546 21.4084 6.25066 21.4084 6.25066C21.9259 7.40146 21.9877 8.70253 21.5812 9.89626C22.5305 10.9165 23.0452 12.2463 23.0218 13.6184C23.0218 18.9505 19.7351 20.1172 16.603 20.4317C16.939 20.7659 17.1987 21.1663 17.3638 21.6077C17.528 22.0483 17.5956 22.5187 17.5608 22.9881V26.7952C17.5608 27.2469 17.8118 27.596 18.5263 27.4597C21.6776 26.3791 24.33 24.2525 26.011 21.4584C27.7132 18.6369 28.3512 15.3324 27.8165 12.1073C27.2919 8.89339 25.6218 5.95774 23.0951 3.80813C20.5973 1.68476 17.3937 0.499032 14.0676 0.466797Z" fill="#F9F9F9"/>
</g>
<defs>
<clipPath id="clip0_1_855">
<rect width="28" height="28" fill="white"/>
</clipPath>
</defs>
</svg>
