<svg width="130" height="16" viewBox="0 0 130 16" fill="none" xmlns="http://www.w3.org/2000/svg">
<g id="Frame" clip-path="url(#clip0_1_746)">
<path id="Vector" d="M1.91805 5.05462H0.781437C0.390727 5.05462 0.177612 4.90917 0.177612 4.50917C0.177612 4.14553 0.390727 3.96371 0.781437 3.96371H1.91805V2.94554C1.91805 1.16372 2.80603 0.254622 4.54646 0.254622C5.22133 0.254622 5.82515 0.400078 6.32242 0.654623C6.92625 1.05462 7.2104 1.60008 7.2104 2.25462C7.2104 2.72735 7.06832 2.90917 6.71313 2.90917C6.4645 2.90917 6.25138 2.76371 6.18034 2.50917C6.03827 2.03644 5.89619 1.74553 5.78963 1.63644C5.57652 1.3819 5.15029 1.23644 4.54646 1.23644C3.44537 1.23644 2.98362 1.7819 2.98362 2.83644V3.85462H5.04373C5.50548 3.85462 5.7186 4.00008 5.7186 4.40008C5.7186 4.76371 5.46996 4.94553 5.04373 4.94553H2.98362V11.6728C2.98362 12.0728 2.84155 12.291 2.48636 12.291C2.13116 12.291 1.98909 12.0728 1.98909 11.6728L1.91805 5.05462ZM11.1175 11.2001V5.09099H9.59018C9.16395 5.09099 8.95084 4.94553 8.95084 4.54553C8.95084 4.1819 9.16395 4.00008 9.59018 4.00008H11.6148C11.97 4.00008 12.1476 4.29099 12.1476 4.90917C12.7869 4.21826 13.4262 3.85462 14.1721 3.85462C14.776 3.85462 15.2022 4.00008 15.5574 4.40008C15.9126 4.80008 16.0547 5.27281 16.0547 5.85462C16.0547 6.25462 15.9126 6.47281 15.5574 6.47281C15.3443 6.47281 15.2022 6.32735 15.0956 6.07281C14.9536 5.56371 14.847 5.30917 14.847 5.27281C14.7049 5.01826 14.3853 4.87281 14.0656 4.87281C13.6749 4.87281 13.2842 5.01826 12.9645 5.34553C12.7514 5.49099 12.4672 5.81826 12.112 6.29099V11.2001H14.0301C14.4918 11.2001 14.6694 11.3455 14.6694 11.7092C14.6694 12.0728 14.4563 12.2546 14.0301 12.2546H9.59018C9.12843 12.2546 8.95084 12.1092 8.95084 11.7092C8.95084 11.3455 9.16395 11.1637 9.59018 11.1637H11.153L11.1175 11.2001ZM18.8252 8.29099V9.45462C18.8252 10.7274 19.6776 11.3092 21.3825 11.3092C22.0219 11.3092 22.5191 11.2728 22.9099 11.091C23.123 11.0546 23.4426 10.8364 23.9399 10.4728C24.2241 10.1819 24.4727 10.0364 24.5793 10.0364C24.8634 10.0364 25.041 10.1819 25.041 10.4728C25.041 10.7637 24.8279 11.1274 24.4017 11.491C23.7268 12.0364 22.6612 12.3637 21.347 12.3637C18.9672 12.3637 17.7951 11.4183 17.7951 9.41826V6.54553C17.7951 5.89099 18.0437 5.27281 18.541 4.83644C19.1803 4.1819 20.1749 3.89099 21.4536 3.89099C23.7623 3.89099 24.8989 5.09099 24.8989 7.49099C24.8989 8.10917 24.6503 8.36371 24.2596 8.36371L18.8252 8.29099ZM18.8252 7.23644H23.9044C23.9044 5.6728 23.0519 4.87281 21.347 4.87281C20.7077 4.87281 20.1749 5.01826 19.6066 5.34553C19.1093 5.74553 18.8252 6.14553 18.8252 6.65462V7.23644ZM27.7405 8.29099V9.45462C27.7405 10.7274 28.5929 11.3092 30.2978 11.3092C30.9372 11.3092 31.4344 11.2728 31.8252 11.091C32.0383 11.0546 32.3579 10.8364 32.8552 10.4728C33.1394 10.1819 33.388 10.0364 33.4946 10.0364C33.7787 10.0364 33.9563 10.1819 33.9563 10.4728C33.9563 10.7637 33.7432 11.1274 33.317 11.491C32.6421 12.0364 31.5765 12.3637 30.2623 12.3637C27.8825 12.3637 26.7104 11.4183 26.7104 9.41826V6.54553C26.7104 5.89099 26.959 5.27281 27.4563 4.83644C28.0956 4.1819 29.0902 3.89099 30.3689 3.89099C32.6776 3.89099 33.8142 5.09099 33.8142 7.49099C33.8142 8.10917 33.5656 8.36371 33.1749 8.36371L27.7405 8.29099ZM27.7405 7.23644H32.8197C32.8197 5.6728 31.9672 4.87281 30.2623 4.87281C29.623 4.87281 29.0902 5.01826 28.5219 5.34553C27.9891 5.74553 27.7405 6.14553 27.7405 6.65462V7.23644ZM35.6967 9.01826V4.47281C35.6967 2.03644 36.9399 0.872801 39.3907 0.872801C40.3853 0.872801 41.1667 1.12735 41.806 1.52735C42.4809 2.07281 42.8361 2.83644 42.8361 3.81826C42.8361 4.29099 42.694 4.47281 42.3033 4.47281C42.0547 4.47281 41.8415 4.25462 41.7705 3.81826C41.735 3.45462 41.5574 3.12735 41.3798 2.80008C41.0956 2.1819 40.3853 1.92735 39.3197 1.92735C38.4317 1.92735 37.7568 2.1819 37.3306 2.61826C36.9044 3.05462 36.7978 3.74553 36.7978 4.69099V8.47281C36.7978 9.49099 37.0109 10.1819 37.4017 10.5819C37.8634 11.0546 38.5028 11.3455 39.3907 11.3455C40.776 11.3455 41.5574 10.8364 41.7705 9.89099C41.8771 9.49099 41.8771 9.34553 41.8771 9.27281C41.9836 9.05462 42.1257 8.9819 42.3388 8.9819C42.694 8.9819 42.8716 9.23644 42.8716 9.63644C42.8716 10.5455 42.4809 11.2364 41.7705 11.8183C41.1667 12.2183 40.4208 12.4364 39.4618 12.4364C38.3252 12.4364 37.4372 12.1819 36.7978 11.6364C36.0519 11.0183 35.6967 10.1092 35.6967 9.01826ZM44.47 9.67281V6.65462C44.47 4.80008 45.6421 3.89099 48.0219 3.89099C50.4017 3.89099 51.5738 4.80008 51.5738 6.65462V9.67281C51.5738 11.5274 50.4017 12.4364 48.0574 12.4364C45.6776 12.4001 44.47 11.491 44.47 9.67281ZM50.5437 9.67281V6.65462C50.5437 5.49099 49.6913 4.94553 47.9864 4.94553C46.3525 4.94553 45.4645 5.56371 45.4645 6.65462V9.67281C45.4645 10.8364 46.317 11.3819 48.0219 11.3819C49.7623 11.3455 50.5437 10.7637 50.5437 9.67281ZM59.388 11.3819C58.8907 11.7819 58.5 12.0001 58.1093 12.1455C57.7186 12.291 57.2213 12.4001 56.6885 12.4001C55.765 12.4001 54.9481 12.1819 54.3798 11.7819C53.7049 11.3092 53.3497 10.6183 53.3497 9.67281V6.54553C53.3497 5.63644 53.7049 4.94553 54.3443 4.47281C54.8771 4.07281 55.694 3.85462 56.582 3.85462C57.1858 3.85462 57.6831 3.89099 58.0738 4.0728C58.4645 4.21826 58.9263 4.47281 59.3525 4.87281V1.09099C59.3525 0.581896 59.4946 0.327348 59.8497 0.327348C60.2049 0.327348 60.3825 0.581896 60.3825 1.09099V11.8546C60.3825 12.2546 60.2405 12.4001 59.8853 12.4001C59.6721 12.4001 59.5301 12.291 59.4946 12.0364C59.4235 11.891 59.388 11.6728 59.388 11.3819ZM59.317 10.1819V5.92735C58.8197 5.52735 58.429 5.27281 58.0738 5.16371C57.612 5.01826 57.1858 4.90917 56.6885 4.90917C56.0492 4.90917 55.5164 5.01826 55.1257 5.30917C54.6284 5.60008 54.3443 6.10917 54.3443 6.69099V9.63644C54.3443 10.2546 54.5929 10.691 55.1257 11.0546C55.5874 11.3092 56.0492 11.4546 56.7596 11.4546C57.2924 11.4546 57.7896 11.3455 58.1803 11.2001C58.5355 10.8728 58.9262 10.5819 59.317 10.1819ZM63.2596 8.29099V9.45462C63.2596 10.7274 64.112 11.3092 65.817 11.3092C66.4563 11.3092 66.9536 11.2728 67.3443 11.091C67.5574 11.0546 67.8771 10.8364 68.3743 10.4728C68.6585 10.1819 68.9071 10.0364 69.0137 10.0364C69.2978 10.0364 69.4754 10.1819 69.4754 10.4728C69.4754 10.7637 69.2623 11.1274 68.8361 11.491C68.1612 12.0364 67.0956 12.3637 65.7814 12.3637C63.4017 12.3637 62.2295 11.4183 62.2295 9.41826V6.54553C62.2295 5.89099 62.4782 5.27281 62.9754 4.83644C63.6148 4.1819 64.6093 3.89099 65.888 3.89099C68.1967 3.89099 69.3334 5.09099 69.3334 7.49099C69.3334 8.10917 69.0847 8.36371 68.694 8.36371L63.2596 8.29099ZM63.2596 7.23644H68.3388C68.3388 5.6728 67.4864 4.87281 65.7814 4.87281C65.1421 4.87281 64.6093 5.01826 64.041 5.34553C63.5082 5.74553 63.2596 6.14553 63.2596 6.65462V7.23644ZM71.2159 9.01826V4.47281C71.2159 2.03644 72.459 0.872801 74.9099 0.872801C75.9044 0.872801 76.6858 1.12735 77.3251 1.52735C78 2.07281 78.3552 2.83644 78.3552 3.81826C78.3552 4.29099 78.2131 4.47281 77.8224 4.47281C77.5738 4.47281 77.3607 4.25462 77.2896 3.81826C77.2541 3.45462 77.0765 3.12735 76.8989 2.80008C76.6148 2.1819 75.9044 1.92735 74.8388 1.92735C73.9508 1.92735 73.276 2.1819 72.8497 2.61826C72.459 3.09099 72.317 3.74553 72.317 4.69099V8.47281C72.317 9.49099 72.5301 10.1819 72.9208 10.5819C73.347 11.0546 74.0219 11.3455 74.9099 11.3455C76.2951 11.3455 77.0765 10.8364 77.2896 9.89099C77.3962 9.49099 77.3962 9.34553 77.3962 9.27281C77.5027 9.05462 77.6448 8.9819 77.8224 8.9819C78.1776 8.9819 78.3552 9.23644 78.3552 9.63644C78.3552 10.5455 77.9645 11.2364 77.2541 11.8183C76.6503 12.2183 75.9044 12.4364 74.9454 12.4364C73.8088 12.4364 72.9208 12.1819 72.2814 11.6364C71.5711 11.0183 71.2159 10.1092 71.2159 9.01826ZM85.7077 11.3819C85.2104 11.7819 84.8197 12.0364 84.5355 12.1455C84.1448 12.291 83.6831 12.4001 83.1503 12.4001C82.2978 12.4001 81.5874 12.2546 81.0191 11.8546C80.3798 11.3819 80.0956 10.8001 80.0956 9.92735C80.0956 9.05462 80.4508 8.40008 81.0902 7.89099C81.623 7.45462 82.3689 7.23644 83.2568 7.23644C83.9317 7.23644 84.7486 7.3819 85.6721 7.74553V6.43644C85.6721 5.81826 85.388 5.3819 84.8197 5.12735C84.429 4.9819 83.9317 4.87281 83.3989 4.87281C82.0492 4.87281 81.3743 5.27281 81.2323 6.03644C81.1967 6.40008 81.1257 6.5819 81.1257 6.5819C81.0191 6.72735 80.8771 6.83644 80.664 6.83644C80.2732 6.83644 80.1312 6.61826 80.1312 6.21826C80.1312 5.67281 80.3443 5.16371 80.7705 4.69099C81.2678 4.0728 82.1913 3.81826 83.541 3.81826C84.5711 3.81826 85.3525 3.96371 85.8497 4.36371C86.4536 4.83644 86.7377 5.52735 86.7377 6.5819V10.3274C86.7377 10.7637 86.8443 11.091 86.9864 11.2001C86.9864 11.2001 87.1995 11.3092 87.4836 11.4546C87.6257 11.5637 87.7323 11.7092 87.7323 11.9637C87.7323 12.2546 87.5902 12.4364 87.2705 12.4364C87.1639 12.4364 87.0219 12.4364 86.8088 12.3274C86.418 12.1819 86.1694 12.0728 86.1339 12.0728C85.8853 11.891 85.7787 11.6728 85.7077 11.3819ZM85.6721 10.291V8.72735C84.8907 8.47281 84.1093 8.32735 83.4344 8.32735C81.9071 8.32735 81.1612 8.83644 81.1612 9.85462C81.1612 10.4001 81.4099 10.8001 81.8361 11.0183C82.2268 11.2364 82.6885 11.3092 83.2213 11.3092C83.7186 11.3092 84.1448 11.2001 84.5355 11.0183C84.8197 10.9455 85.1749 10.691 85.6721 10.291ZM89.6503 4.72735C89.8989 4.43644 90.1476 4.1819 90.2896 4.0728C90.5383 3.92735 90.7869 3.81826 91.1776 3.81826C91.7104 3.81826 92.2077 4.10917 92.6694 4.72735C92.9536 4.36371 93.2022 4.10917 93.4508 4.03644C93.6995 3.89099 94.0547 3.81826 94.4454 3.81826C95.6885 3.81826 96.2569 4.43644 96.2569 5.67281V11.6364C96.2569 12.1455 96.1148 12.4001 95.7241 12.4001C95.3689 12.4001 95.2268 12.1455 95.2268 11.6364V6.03644C95.2268 5.27281 94.9426 4.87281 94.3388 4.87281C93.8771 4.87281 93.4508 5.16371 93.0601 5.74553V11.6364C93.0601 12.1455 92.9181 12.4001 92.5629 12.4001C92.2077 12.4001 92.0656 12.1455 92.0656 11.6364V6.1819C92.0656 5.30917 91.7104 4.90917 91.0711 4.90917C90.6093 4.90917 90.2186 5.20008 89.8279 5.7819V11.7092C89.8279 12.2183 89.6858 12.4728 89.2951 12.4728C88.9399 12.4728 88.7978 12.2183 88.7978 11.7092V4.43644C88.7978 4.0728 88.9399 3.89099 89.2596 3.89099C89.4017 3.89099 89.5437 4.00008 89.6503 4.1819C89.6148 4.32735 89.6503 4.5819 89.6503 4.72735ZM98.8853 4.72735C99.6667 4.10917 100.626 3.85462 101.656 3.85462C103.822 3.85462 104.852 4.80008 104.852 6.61826V9.63644C104.852 10.5092 104.568 11.2001 103.965 11.7092C103.432 12.1819 102.686 12.3637 101.727 12.3637C100.626 12.3637 99.7022 12.0728 98.8497 11.4546V14.9455C98.8497 15.491 98.7077 15.7455 98.3525 15.7455C97.9973 15.7455 97.8552 15.491 97.8552 14.9455V4.65462C97.8552 4.10917 97.9973 3.85462 98.2814 3.85462C98.4235 3.85462 98.5656 3.96371 98.6721 4.14553C98.7432 4.36371 98.7787 4.5819 98.8853 4.72735ZM98.8853 10.3274C99.6312 10.9819 100.519 11.3455 101.549 11.3455C102.189 11.3455 102.721 11.2364 103.112 10.9455C103.609 10.6546 103.787 10.1819 103.787 9.63644V6.61826C103.787 5.96371 103.538 5.56371 103.005 5.23644C102.615 5.01826 102.082 4.94553 101.443 4.94553C100.839 4.94553 100.342 5.05462 100.022 5.20008C99.6667 5.34553 99.347 5.6728 98.8497 6.14553V10.3274H98.8853ZM108.369 7.3819C108.369 5.05462 109.15 2.98189 110.678 1.23644C111.21 0.581892 111.708 0.218262 112.027 0.218262C112.134 0.218262 112.276 0.218257 112.312 0.327348C112.418 0.436438 112.454 0.472805 112.454 0.61826C112.454 0.763714 112.24 1.05463 111.85 1.49099C110.216 3.09099 109.434 5.09099 109.434 7.45462C109.434 10.0728 110.287 12.2546 111.956 13.8546C112.312 14.1455 112.454 14.4728 112.454 14.6546C112.454 14.7637 112.418 14.9092 112.312 14.9455C112.205 15.0546 112.098 15.091 112.027 15.091C111.637 15.091 111.104 14.6183 110.393 13.6728C109.008 12.0001 108.369 9.92735 108.369 7.3819ZM129.822 8.00008C129.822 10.3274 129.041 12.4001 127.514 14.1455C126.981 14.8001 126.484 15.1637 126.164 15.1637C126.057 15.1637 125.915 15.1637 125.88 15.0546C125.773 14.9455 125.738 14.8364 125.738 14.7637C125.738 14.6183 125.951 14.291 126.342 13.9637C127.975 12.3637 128.757 10.3637 128.757 8.00008C128.757 5.3819 127.904 3.20007 126.235 1.60007C125.88 1.30917 125.738 0.981896 125.738 0.800078C125.738 0.690987 125.773 0.545529 125.88 0.509165C125.986 0.400074 126.093 0.363714 126.164 0.363714C126.555 0.363714 127.087 0.836438 127.798 1.78189C129.148 3.41826 129.822 5.52735 129.822 8.00008ZM123.962 14.6546H114.158C113.874 14.6546 113.555 14.4001 113.555 14.0364C113.555 13.6728 113.803 13.4183 114.158 13.4183H123.962C124.246 13.4183 124.566 13.6728 124.566 14.0364C124.53 14.4001 124.352 14.6546 123.962 14.6546ZM117 1.49099C117 1.49099 117.852 2.10917 117.852 3.09099C117.852 4.90917 115.437 6.94553 115.437 8.83644C115.437 10.9092 116.964 12.2183 118.385 12.6183C118.598 12.6546 118.669 12.4001 118.421 12.3637C117.817 12.2183 117.142 11.4183 117.142 10.1455C117.142 8.9819 118.243 8.54553 118.669 7.96371C119.131 7.34553 119.025 6.65462 118.776 6.43644C118.527 6.21826 118.669 5.92735 119.167 6.29099C119.628 6.65462 120.055 7.23644 119.913 7.85462C119.699 8.61826 119.948 9.05462 120.374 9.12735C120.765 9.16371 121.227 8.9819 121.156 8.61826C121.12 8.25462 120.907 7.85462 121.014 7.85462C121.298 7.85462 121.902 8.54553 121.902 9.67281C121.902 10.8001 121.014 11.6001 120.73 11.891C120.587 12.0364 120.765 12.291 121.014 12.1819C121.12 12.1455 121.369 11.9637 121.511 11.891C122.186 11.3819 123.322 10.3274 123.322 8.36371C123.322 6.29099 122.577 5.3819 121.795 4.61826C121.049 3.85462 120.872 4.07281 121.049 4.40008C121.689 5.56371 121.298 5.92735 120.836 5.92735C120.303 5.92735 120.232 4.61826 120.055 3.63644C119.557 1.41826 117.639 1.05462 117.284 1.05462C116.893 1.09098 116.538 1.27281 117 1.49099Z" fill="#006400"/>
</g>
<defs>
<clipPath id="clip0_1_746">
<rect width="130" height="16" fill="white"/>
</clipPath>
</defs>
</svg>
